<svg t="1765765408779" class="icon" viewBox="0 0 1024 1024" version="1.1" xmlns="http://www.w3.org/2000/svg" p-id="98201" width="16" height="16"><path d="M102.740131 757.07689c-3.758992-10.237254-7.11809-20.714443-10.077296-31.27161 316.79501-236.256617 539.295317 250.412819 762.435452 62.543221a407.890571 407.890571 0 0 1-719.806889 37.110044q-60.223843 15.035966-106.851334-0.879764a278.165373 278.165373 0 0 0 74.060131-67.501891z" fill="#92D3FF" p-id="98202"></path><path d="M135.531334 825.458545Q75.307491 840.494511 28.68 824.578781a278.165373 278.165373 0 0 0 74.060131-67.501891zM713.456287 277.765481A406.530935 406.530935 0 0 0 485.437461 207.944212 407.890571 407.890571 0 0 0 83.865195 686.935708c332.15089-258.57063 529.777871 269.207777 771.233092 101.412793 41.908757-44.867963 140.202386-69.581333 140.202387-69.581333-12.556631-6.958133-43.508328-43.748263-105.091806-31.991417C972.026918 357.584067 740.489035 91.255518 740.489035 91.255518c64.862599 0.879764 110.850261-52.305967 118.928094-91.015582-67.501891 35.830387-116.208823 6.958133-148.680112 48.387018-31.991417-34.230817-87.336569 5.438541-139.562558-9.917339 8.877618 41.108971 49.026847 58.064422 104.451977 63.263028 0 0-14.156202 48.706933-79.978543 80.378436a236.496552 236.496552 0 0 1-31.431567 12.236717q-11.037039 3.519056-23.513692 6.238326c0.319914 0.479871 79.738608 3.27912 172.753653 76.939359z" fill="#1396FF" p-id="98203"></path><path d="M727.212597 665.42148m-33.590988 0a33.590988 33.590988 0 1 0 67.181976 0 33.590988 33.590988 0 1 0-67.181976 0Z" fill="#FFFFFF" p-id="98204"></path></svg>