<?xml version="1.0" standalone="no"?><!DOCTYPE svg PUBLIC "-//W3C//DTD SVG 1.1//EN" "http://www.w3.org/Graphics/SVG/1.1/DTD/svg11.dtd"><svg t="1764740188660" class="icon" viewBox="0 0 1024 1024" version="1.1" xmlns="http://www.w3.org/2000/svg" p-id="42317" xmlns:xlink="http://www.w3.org/1999/xlink" width="1024" height="1024"><path d="M81.92 81.92h860.16v860.16H81.92z" fill="#FFFFFF" p-id="42318"></path><path d="M860.16 1024H163.84a164.0448 164.0448 0 0 1-163.84-163.84V163.84a163.84 163.84 0 0 1 163.84-163.84h696.32a163.84 163.84 0 0 1 163.84 163.84v696.32a163.84 163.84 0 0 1-163.84 163.84z m-188.90752-412.50816a43.6224 43.6224 0 0 0-43.54048 43.58144v133.24288a43.6224 43.6224 0 0 0 43.54048 43.58144h133.24288a43.6224 43.6224 0 0 0 43.58144-43.58144v-133.24288a43.6224 43.6224 0 0 0-43.58144-43.58144h-31.41632V489.8816l-0.24576-4.096v-0.69632a35.30752 35.30752 0 0 0-34.85696-30.43328h-181.37088v-39.64928h30.80192a43.6224 43.6224 0 0 0 43.6224-43.54048V238.1824a43.6224 43.6224 0 0 0-43.6224-43.54048h-133.28384a43.58144 43.58144 0 0 0-43.54048 43.54048v133.28384a43.58144 43.58144 0 0 0 43.54048 43.54048h31.9488v39.69024H304.7424l-4.096 0.24576h-0.65536a35.34848 35.34848 0 0 0-30.43328 34.93888v121.61024h-31.45728a43.6224 43.6224 0 0 0-43.54048 43.58144v133.24288a43.6224 43.6224 0 0 0 43.54048 43.58144h133.28384a43.6224 43.6224 0 0 0 43.54048-43.58144v-133.24288a43.6224 43.6224 0 0 0-43.54048-43.58144H339.968v-86.4256h362.7008v86.4256z m106.496 149.95456h-79.50336v-79.50336h79.50336v79.4624z m-433.152 0H265.09312v-79.50336h79.50336v79.4624z m216.02304-416.93184h-79.50336V265.0112h79.50336v79.4624z" fill="#5983F0" p-id="42319"></path></svg>