<?xml version="1.0" standalone="no"?><!DOCTYPE svg PUBLIC "-//W3C//DTD SVG 1.1//EN" "http://www.w3.org/Graphics/SVG/1.1/DTD/svg11.dtd"><svg t="1764733496144" class="icon" viewBox="0 0 1024 1024" version="1.1" xmlns="http://www.w3.org/2000/svg" p-id="2859" xmlns:xlink="http://www.w3.org/1999/xlink" width="1024" height="1024"><path d="M426.8032 481.81248v276.80768c-19.57888 93.71648-149.99552 69.55008-150.56896 1.55648-0.6144-85.4016 0-170.1888 0-255.01696v-98.26304c0-12.288-2.78528-21.99552-14.09024-29.73696-21.99552-15.64672-48.3328 2.78528-48.90624 25.3952-1.2288 30.3104-0.6144 60.0064-1.2288 89.94816 0 23.59296 0 46.57152 0.6144 70.12352-16.26112 103.8336-148.19328 86.58944-151.18336 0.6144V491.3152c0-23.59296 48.3328-29.12256 45.95712 6.144-1.55648 17.44896-0.57344 35.47136-1.18784 52.71552-0.57344 30.88384 48.9472 51.69152 60.6208 1.18784 0.6144-41.61536 0.6144-83.23072 0.6144-125.25568 0-52.67456 15.64672-95.47776 74.1376-99.45088 25.35424-2.17088 42.1888 7.90528 58.40896 25.3952 6.144 6.144 20.80768 25.72288 21.42208 47.104 0 19.6608 0.57344 39.23968 0.57344 59.06432 0 39.23968-0.57344 78.6432-0.57344 117.88288 0 25.3952 0.57344 50.54464 0.57344 75.32544 0 31.49824 0 63.40608-0.57344 94.90432-0.6144 41.00096 51.69152 40.42752 60.04736-0.6144 0-48.3328 0.57344-96.09216 0.57344-144.42496 0-119.11168-0.57344-238.1824-0.57344-357.25312 0-12.288-1.80224-46.57152 5.12-59.06432 36.4544-84.7872 147.2512-47.75936 148.23424 22.40512 2.17088 143.85152 0 289.30048 0.57344 433.52064 0 49.9712-42.5984 39.23968-44.97408 19.6608 0-150.03648 0-300.6464 0.6144-450.43712-2.17088-37.64224-60.6208-32.48128-64.02048-5.5296-1.18784 30.9248-0.57344 62.42304-1.18784 93.30688v183.7056h0.6144l0.4096 0.2048h-0.04096z" fill="#D4367A" p-id="2860"></path><path d="M598.016 479.60064v203.28448V203.1616c19.0464-94.33088 149.42208-69.75488 149.99552-1.76128 0.6144 84.7872 0 170.1888 0.6144 254.976 0 32.52224 0 65.20832-0.6144 97.6896 0 12.9024 3.35872 21.99552 14.66368 30.3104 21.42208 15.27808 47.75936-2.74432 48.9472-25.72288 1.18784-29.73696 0.57344-59.47392 0.57344-89.98912V398.9504c16.26112-103.8336 147.8656-86.58944 150.60992-0.6144v260.54656c0 23.59296-47.75936 29.16352-45.58848-6.144 1.2288-18.0224 0-224.0512 0.6144-242.11456 1.18784-30.3104-48.9472-51.73248-60.6208-0.6144v124.64128c0 53.32992-15.68768 95.51872-74.71104 100.06528-55.7056 1.2288-78.06976-35.47136-79.872-72.4992V310.35392c0-32.11264 0-63.40608 0.6144-94.90432 0.57344-41.00096-51.73248-41.00096-60.6208 0.6144v563.89632c0 12.288 1.76128 46.57152-4.58752 59.06432-36.4544 84.7872-147.78368 47.75936-148.80768-22.40512v-66.7648c2.78528-44.97408 42.5984-34.28352 44.40064-15.27808v79.2576c2.17088 37.6832 60.6208 33.09568 63.40608 5.57056 1.18784-30.9248 1.18784-61.8496 1.18784-93.34784V479.6416h-0.2048v-0.04096z" fill="#ED6D48" p-id="2861"></path></svg>