<?xml version="1.0" standalone="no"?><!DOCTYPE svg PUBLIC "-//W3C//DTD SVG 1.1//EN" "http://www.w3.org/Graphics/SVG/1.1/DTD/svg11.dtd"><svg t="1765242888966" class="icon" viewBox="0 0 1024 1024" version="1.1" xmlns="http://www.w3.org/2000/svg" p-id="7211" xmlns:xlink="http://www.w3.org/1999/xlink" width="1024" height="1024"><path d="M196.608 174.08h135.168v135.168H196.608V174.08z m540.672 0h135.168v135.168H737.28V174.08z" fill="#FECE00" p-id="7212"></path><path d="M196.608 309.248h135.168v135.168H196.608V309.248z" fill="#FFA301" p-id="7213"></path><path d="M196.608 579.584h135.168v135.168H196.608V579.584z m270.336 0h135.168v135.168H466.944V579.584z m270.336 0h135.168v135.168H737.28V579.584z" fill="#FE4900" p-id="7214"></path><path d="M602.112 309.248H737.28v135.168H602.112V309.248z" fill="#FFA301" p-id="7215"></path><path d="M196.608 444.416h135.168v135.168H196.608V444.416z" fill="#FF6F00" p-id="7216"></path><path d="M196.608 714.752h135.168V849.92H196.608V714.752z m540.672 0h135.168V849.92H737.28V714.752z" fill="#FE0107" p-id="7217"></path><path d="M602.112 444.416H737.28v135.168H602.112V444.416z" fill="#FF6F00" p-id="7218"></path><path d="M331.776 309.248h135.168v135.168H331.776V309.248z m405.504 0h135.168v135.168H737.28V309.248z" fill="#FFA301" p-id="7219"></path><path d="M331.776 444.416h135.168v135.168H331.776V444.416z m405.504 0h135.168v135.168H737.28V444.416z m-270.336 0h135.168v135.168H466.944V444.416z" fill="#FF6F00" p-id="7220"></path><path d="M151.552 174.08h45.056v675.84h-45.056V174.08z m540.672 0h45.056v135.168h-45.056V174.08zM557.056 309.248h45.056v135.168h-45.056V309.248zM421.888 579.584h45.056v135.168h-45.056V579.584z m270.336 0h45.056V849.92h-45.056V579.584z" fill="#191D1D" p-id="7221"></path></svg>