<svg t="1753774391513" class="icon" viewBox="0 0 1024 1024" version="1.1" xmlns="http://www.w3.org/2000/svg" p-id="6875" width="200" height="200"><path d="M0 512a512 512 0 1 0 1024 0 512 512 0 1 0-1024 0Z" fill="#FFFFFF" p-id="6876"></path><path d="M1024 512q0 12.577391-0.623304 25.132522-0.601043 12.53287-1.847653 25.043478-1.224348 12.510609-3.072 24.932174-1.847652 12.466087-4.296347 24.776348-2.448696 12.332522-5.498435 24.531478-3.072 12.176696-6.700522 24.219826-3.650783 12.02087-7.880348 23.863652-4.229565 11.820522-9.060174 23.440696-4.808348 11.597913-10.173217 22.973217-5.38713 11.353043-11.308522 22.438957t-12.377043 21.860174q-6.455652 10.796522-13.445565 21.236869-6.989913 10.462609-14.469566 20.546783-7.501913 10.106435-15.471304 19.812174-7.969391 9.728-16.406261 19.033043-8.45913 9.305043-17.341217 18.209392-8.882087 8.882087-18.187131 17.318956-9.305043 8.43687-19.033043 16.406261-9.705739 7.969391-19.812174 15.471304-10.084174 7.479652-20.546783 14.469566-10.462609 6.967652-21.236869 13.445565-10.774261 6.455652-21.860174 12.377043-11.085913 5.921391-22.438957 11.308522-11.353043 5.36487-22.973217 10.173217-11.620174 4.808348-23.440696 9.060174-11.842783 4.229565-23.863652 7.880348-12.02087 3.628522-24.219826 6.678261-12.198957 3.072-24.531478 5.520696-12.332522 2.448696-24.754087 4.296347-12.443826 1.847652-24.932174 3.072-12.53287 1.246609-25.065739 1.847653Q524.577391 1024 512 1024q-12.577391 0-25.132522-0.623304-12.53287-0.601043-25.043478-1.847653-12.510609-1.224348-24.932174-3.072-12.466087-1.847652-24.776348-4.296347-12.332522-2.448696-24.531478-5.498435-12.176696-3.072-24.219826-6.700522-12.02087-3.650783-23.863652-7.880348-11.820522-4.229565-23.440696-9.060174-11.597913-4.808348-22.973217-10.173217-11.353043-5.38713-22.438957-11.308522t-21.860174-12.377043q-10.796522-6.455652-21.236869-13.445565-10.462609-6.989913-20.546783-14.469566-10.106435-7.501913-19.812174-15.471304-9.728-7.969391-19.033043-16.406261-9.305043-8.45913-18.187131-17.341217-8.904348-8.882087-17.341217-18.187131-8.45913-9.305043-16.406261-19.033043-7.969391-9.705739-15.471304-19.812174-7.479652-10.084174-14.469566-20.546783-6.967652-10.462609-13.445565-21.236869-6.455652-10.774261-12.377043-21.860174-5.921391-11.085913-11.308522-22.438957-5.36487-11.353043-10.173217-22.973217-4.808348-11.620174-9.060174-23.440696-4.229565-11.842783-7.880348-23.863652-3.650783-12.02087-6.678261-24.219826-3.072-12.198957-5.520696-24.531478-2.448696-12.332522-4.296347-24.754087-1.847652-12.443826-3.072-24.932174-1.246609-12.53287-1.847653-25.065739Q0 524.577391 0 512q0-12.577391 0.623304-25.132522 0.601043-12.53287 1.847653-25.043478 1.224348-12.510609 3.072-24.932174 1.847652-12.466087 4.296347-24.776348 2.448696-12.332522 5.498435-24.531478 3.049739-12.176696 6.700522-24.219826 3.650783-12.02087 7.880348-23.863652 4.229565-11.820522 9.060174-23.440696 4.808348-11.597913 10.173217-22.973217 5.38713-11.353043 11.308522-22.438957t12.377043-21.860174q6.455652-10.796522 13.445565-21.236869 6.989913-10.462609 14.469566-20.546783 7.501913-10.106435 15.471304-19.812174 7.969391-9.728 16.406261-19.033043 8.45913-9.305043 17.341217-18.187131 8.882087-8.904348 18.187131-17.341217 9.305043-8.45913 19.033043-16.406261 9.705739-7.969391 19.812174-15.471304 10.084174-7.479652 20.546783-14.469566 10.462609-6.967652 21.236869-13.445565 10.774261-6.455652 21.860174-12.377043 11.085913-5.921391 22.438957-11.308522 11.353043-5.36487 22.973217-10.173217 11.620174-4.808348 23.440696-9.060174 11.842783-4.229565 23.863652-7.880348 12.02087-3.650783 24.219826-6.678261 12.198957-3.072 24.531478-5.520696 12.332522-2.448696 24.754087-4.296347 12.443826-1.847652 24.932174-3.072 12.53287-1.246609 25.065739-1.847653Q499.422609 0 512 0q12.577391 0 25.132522 0.623304 12.53287 0.601043 25.043478 1.847653 12.510609 1.224348 24.932174 3.072 12.466087 1.847652 24.776348 4.296347 12.332522 2.448696 24.531478 5.498435 12.176696 3.049739 24.219826 6.700522 12.02087 3.650783 23.863652 7.880348 11.820522 4.229565 23.440696 9.060174 11.597913 4.808348 22.973217 10.173217 11.353043 5.38713 22.438957 11.308522t21.860174 12.377043q10.796522 6.455652 21.236869 13.445565 10.462609 6.989913 20.546783 14.469566 10.106435 7.501913 19.812174 15.471304 9.728 7.969391 19.033043 16.406261 9.305043 8.45913 18.209392 17.341217 8.882087 8.882087 17.318956 18.187131 8.43687 9.305043 16.406261 19.033043 7.969391 9.705739 15.471304 19.812174 7.479652 10.084174 14.469566 20.546783 6.967652 10.462609 13.445565 21.236869 6.455652 10.774261 12.377043 21.860174 5.921391 11.085913 11.308522 22.438957 5.36487 11.353043 10.173217 22.973217 4.808348 11.620174 9.060174 23.440696 4.229565 11.842783 7.880348 23.863652 3.628522 12.02087 6.678261 24.219826 3.072 12.198957 5.520696 24.531478 2.448696 12.332522 4.296347 24.754087 1.847652 12.443826 3.072 24.932174 1.246609 12.53287 1.847653 25.065739Q1024 499.422609 1024 512z m-11.130435 0q0-12.288-0.601043-24.576t-1.803131-24.509217q-1.224348-12.243478-3.027478-24.397913-1.78087-12.176696-4.185043-24.242087-2.404174-12.04313-5.387131-23.974957-3.005217-11.931826-6.566956-23.685565-3.561739-11.776-7.702261-23.351652-4.140522-11.575652-8.859826-22.928696-4.697043-11.353043-9.950609-22.483478-5.253565-11.130435-11.063652-21.949218-5.787826-10.863304-12.109913-21.392695-6.322087-10.551652-13.133913-20.769392-6.856348-10.24-14.180174-20.101565-7.323826-9.883826-15.137392-19.366956-7.791304-9.527652-16.027826-18.632348-8.258783-9.126957-16.962782-17.808696-8.681739-8.681739-17.808696-16.940522-9.126957-8.258783-18.610087-16.072347-9.505391-7.791304-19.366956-15.137392-9.883826-7.301565-20.123826-14.135652-10.217739-6.834087-20.769392-13.133913-10.551652-6.344348-21.370435-12.132174-10.863304-5.787826-21.971478-11.063652-11.130435-5.253565-22.483478-9.950609-11.353043-4.719304-22.928696-8.859826-11.575652-4.140522-23.351652-7.702261-11.753739-3.561739-23.685565-6.566956-11.931826-2.982957-23.974957-5.387131Q597.659826 18.365217 585.46087 16.562087q-12.154435-1.825391-24.397913-3.027478-12.243478-1.202087-24.509218-1.78087Q524.288 11.130435 512 11.130435t-24.576 0.601043q-12.288 0.601043-24.509217 1.803131-12.243478 1.202087-24.397913 3.027478-12.176696 1.78087-24.242087 4.185043-12.04313 2.404174-23.974957 5.387131-11.931826 3.005217-23.685565 6.566956-11.776 3.561739-23.351652 7.702261-11.575652 4.140522-22.928696 8.859826-11.353043 4.697043-22.483478 9.950609-11.130435 5.253565-21.949218 11.063652-10.863304 5.787826-21.392695 12.109913-10.551652 6.322087-20.769392 13.133913-10.24 6.856348-20.101565 14.180174-9.883826 7.323826-19.366956 15.137392-9.527652 7.791304-18.632348 16.027826-9.126957 8.281043-17.808696 16.962782-8.681739 8.681739-16.940522 17.808696-8.258783 9.126957-16.072347 18.610087-7.791304 9.505391-15.137392 19.366956-7.301565 9.883826-14.135652 20.123826-6.834087 10.217739-13.133913 20.769392-6.344348 10.529391-12.132174 21.370435-5.787826 10.863304-11.063652 21.971478-5.253565 11.130435-9.950609 22.483478-4.719304 11.353043-8.859826 22.928696-4.140522 11.575652-7.702261 23.351652-3.561739 11.753739-6.566956 23.685565-2.982957 11.931826-5.387131 23.974957-2.381913 12.065391-4.185043 24.242087-1.825391 12.154435-3.027478 24.397913-1.202087 12.243478-1.78087 24.509217Q11.130435 499.712 11.130435 512t0.601043 24.576q0.601043 12.288 1.803131 24.509217 1.202087 12.243478 3.027478 24.397913 1.78087 12.176696 4.185043 24.242087 2.404174 12.04313 5.387131 23.974957 3.005217 11.931826 6.566956 23.685565 3.561739 11.776 7.702261 23.351652 4.140522 11.575652 8.859826 22.928696 4.697043 11.353043 9.950609 22.483478 5.253565 11.130435 11.063652 21.949218 5.787826 10.841043 12.109913 21.392695 6.322087 10.551652 13.133913 20.769392 6.856348 10.24 14.180174 20.101565 7.323826 9.883826 15.137392 19.366956 7.791304 9.527652 16.027826 18.632348 8.281043 9.126957 16.962782 17.808696 8.681739 8.681739 17.808696 16.940522 9.126957 8.258783 18.610087 16.072347 9.505391 7.791304 19.366956 15.137392 9.883826 7.301565 20.123826 14.135652 10.217739 6.834087 20.769392 13.133913 10.529391 6.344348 21.370435 12.132174 10.863304 5.787826 21.971478 11.063652 11.130435 5.253565 22.483478 9.950609 11.353043 4.719304 22.928696 8.859826 11.575652 4.140522 23.351652 7.702261 11.753739 3.561739 23.685565 6.566956 11.931826 2.982957 23.974957 5.387131 12.065391 2.381913 24.242087 4.207304 12.154435 1.78087 24.397913 3.005217 12.243478 1.202087 24.509217 1.78087 12.288 0.623304 24.576 0.623304t24.576-0.601043q12.288-0.601043 24.509217-1.803131 12.243478-1.224348 24.397913-3.027478 12.176696-1.78087 24.242087-4.185043 12.04313-2.404174 23.974957-5.387131 11.931826-3.005217 23.685565-6.566956 11.776-3.561739 23.351652-7.702261 11.575652-4.140522 22.928696-8.859826 11.353043-4.697043 22.483478-9.950609 11.130435-5.253565 21.949218-11.063652 10.841043-5.787826 21.392695-12.109913 10.551652-6.322087 20.769392-13.133913 10.24-6.856348 20.101565-14.180174 9.883826-7.323826 19.366956-15.137392 9.527652-7.791304 18.632348-16.027826 9.126957-8.258783 17.808696-16.962782 8.681739-8.681739 16.940522-17.808696 8.258783-9.126957 16.072347-18.610087 7.791304-9.505391 15.137392-19.366956 7.301565-9.883826 14.135652-20.123826 6.834087-10.217739 13.133913-20.769392 6.344348-10.551652 12.132174-21.370435 5.787826-10.863304 11.063652-21.971478 5.253565-11.130435 9.950609-22.483478 4.719304-11.353043 8.859826-22.928696 4.140522-11.575652 7.702261-23.351652 3.561739-11.753739 6.566956-23.685565 2.982957-11.931826 5.387131-23.974957 2.381913-12.065391 4.207304-24.242087 1.78087-12.154435 3.005217-24.397913 1.202087-12.243478 1.78087-24.509217 0.623304-12.288 0.623304-24.576z" fill="#CFD6E4" p-id="6877"></path><path d="M395.397565 195.784348c26.334609 18.142609 37.019826 47.482435 43.408696 77.913043 0.868174 6.611478 0.868174 13.022609 0.734609 19.656348l7.034434-2.960696 9.216-3.85113 9.126957-3.82887c30.274783-12.354783 69.36487-9.728 99.417043 2.070261 5.943652 2.738087 11.798261 5.565217 17.630609 8.570435l0.222609-4.941913c2.31513-33.569391 12.911304-65.26887 37.999304-88.598261 12.710957-8.236522 25.266087-8.726261 39.980522-6.989913 20.168348 9.505391 31.833043 27.759304 39.780174 47.994435 8.325565 25.288348 10.907826 50.487652 10.996869 76.978087l0.022261 6.188522c-0.089043 10.685217-1.135304 20.257391-3.695304 30.630956-1.157565 5.676522-1.157565 5.676522 0.356174 11.353044 6.322087 7.880348 13.245217 14.425043 20.724869 21.236869 24.264348 22.528 33.480348 56.58713 35.57287 88.82087 0.845913 25.065739-2.893913 50.465391-15.115131 72.659478-6.589217 13.445565-3.82887 21.147826 0.534261 35.08313l2.960696 8.392348c13.133913 37.019826 12.621913 80.094609 0 117.270261-2.671304 5.38713-5.409391 10.752-8.192 16.072348-5.12 10.195478-5.12 10.195478-4.36313 21.147826 2.003478 4.229565 4.140522 8.370087 6.41113 12.466087 9.728 17.92 9.46087 38.622609 9.638956 58.546087l0.089044 6.077217c-0.089043 13.04487-2.092522 20.836174-6.366609 33.702957h-41.894956l2.804869-19.545044c1.625043-30.831304 0.378435-56.876522-14.669913-84.301913-5.765565-11.085913-5.787826-17.986783-2.092521-30.208 2.114783-3.606261 4.318609-7.145739 6.633739-10.640695 17.318957-26.401391 19.033043-56.32 15.693913-87.084522-3.561739-16.361739-9.572174-30.853565-17.452522-45.568-5.409391-10.50713-7.012174-17.875478-4.897391-29.829565 3.85113-5.832348 8.102957-11.130435 12.488347-16.517565 14.491826-19.678609 15.159652-43.720348 12.666435-67.250087-6.522435-27.91513-20.591304-52.98087-44.566261-69.231305-17.296696-10.284522-29.228522-11.865043-49.152-11.931826-18.788174-0.845913-18.788174-0.845913-27.336347-8.503652a247.607652 247.607652 0 0 1-13.000348-22.038261c-19.878957-22.950957-45.167304-34.148174-75.019131-37.531826a104.448 104.448 0 0 0-67.383652 29.161739c-8.058435 9.327304-15.137391 18.610087-20.123826 29.918609-5.008696 6.366609-5.008696 6.366609-14.425043 7.746782-3.784348 0-7.568696-0.066783-11.353044-0.155826-28.226783 0.623304-49.797565 9.349565-69.810087 29.829566-17.875478 22.194087-28.115478 49.241043-26.713043 77.868521 3.450435 22.483478 9.48313 38.733913 24.442434 55.830261 4.941913 7.902609 4.229565 13.111652 3.494957 22.349913-3.472696 8.904348-3.472696 8.904348-8.036174 17.986783-16.250435 32.634435-20.658087 68.518957-9.594435 103.668869 3.784348 9.97287 8.281043 18.432 14.313739 27.225044 5.075478 7.68 6.077217 9.906087 6.455653 19.545043a221.651478 221.651478 0 0 1-13.890783 33.613913c-6.233043 14.291478-6.455652 27.937391-6.366609 43.341913l-0.022261 5.787827v10.818782c0.534261 8.592696 1.958957 17.118609 3.161044 25.644522H272.027826c-4.674783-14.024348-6.678261-24.397913-6.633739-38.733913v-6.233044c0.445217-22.349913 3.695304-50.465391 15.849739-69.721043 2.760348-5.832348 2.760348-5.832348-0.979478-13.445565l-4.763826-9.060174c-21.793391-44.877913-18.610087-92.694261-3.472696-139.264 1.825391-3.739826 3.695304-7.457391 5.565217-11.174957-0.623304-11.308522-5.632-20.034783-11.063652-29.718261-14.536348-33.101913-13.133913-76.644174-0.979478-110.124521 9.305043-20.613565 20.368696-36.663652 37.175652-51.801044 8.347826-7.568696 8.347826-7.568696 12.154435-17.67513-0.734609-5.832348-0.734609-5.832348-2.226087-11.976348-7.880348-39.401739-1.78087-92.694261 18.009044-127.777391 17.408-24.086261 35.08313-34.838261 64.756869-24.932174z m-22.861913 38.934261c-2.248348 4.096-4.452174 8.236522-6.633739 12.377043l-3.739826 6.967652c-8.926609 21.25913-9.950609 41.761391-9.527652 64.601044l0.066782 8.125217c0.066783 6.544696 0.155826 13.089391 0.289392 19.611826 7.390609-0.77913 14.758957-1.602783 22.149565-2.448695l6.388869-0.667826c5.409391-0.623304 10.774261-1.513739 16.139131-2.448696 11.264-22.550261 1.558261-58.212174-5.587478-80.985044a128.601043 128.601043 0 0 0-11.174957-22.349913l-8.370087-2.782608z m270.870261 0c-15.983304 25.911652-22.750609 51.133217-22.706087 81.67513v10.329044c-0.222609 8.281043-0.222609 8.281043 3.161044 14.113391 7.568696 1.335652 14.914783 2.337391 22.505739 3.116522l6.41113 0.756869 15.760696 1.691826c2.114783-58.457043 2.114783-58.457043-19.545044-111.682782h-5.587478z" fill="#242424" p-id="6878"></path><path d="M558.747826 477.495652c24.709565 12.510609 43.853913 30.096696 53.938087 56.008348 5.87687 20.301913 3.873391 38.422261-4.719304 57.655652-12.132174 21.77113-30.942609 31.877565-53.915826 40.069565-13.868522 3.895652-28.137739 3.428174-42.429218 3.494957l-7.568695 0.178087c-29.250783 0.178087-55.941565-7.501913-77.690435-27.670261-13.490087-14.558609-20.546783-29.918609-21.370435-49.819826 1.157565-24.887652 9.950609-41.316174 27.069217-59.347478 33.324522-28.649739 85.570783-36.240696 126.686609-20.591305z m-116.424348 53.203478c-7.68 11.130435-10.106435 22.706087-7.702261 36.173913 4.919652 13.222957 14.870261 23.885913 26.824348 31.232 27.046957 12.221217 64.155826 12.577391 91.981913 2.715827 14.425043-7.190261 25.444174-16.695652 32.901565-31.009392 2.048-13.957565 0.512-23.974957-6.099478-36.485565-13.06713-16.161391-27.492174-29.339826-48.528695-33.324522-37.13113-3.33913-63.977739 2.537739-89.355131 30.72z m209.986783-53.915826c8.45913 6.121739 12.621913 12.733217 14.336 23.106783 0.534261 10.017391 0.022261 15.649391-6.144 23.663304-10.685217 7.858087-17.719652 8.94887-31.053913 7.168-9.216-6.589217-15.493565-14.336-18.187131-25.444174-0.534261-9.839304 0.667826-15.449043 6.678261-23.262608 11.152696-8.214261 20.925217-9.46087 34.370783-5.231305z m-253.952 0.356174c4.897391 3.31687 4.897391 3.31687 10.462609 11.686957 1.892174 14.09113 1.602783 22.038261-7.14574 33.502608-7.101217 7.368348-9.126957 8.303304-19.72313 9.950609-8.347826-1.380174-13.734957-2.337391-20.591304-7.145739-6.90087-10.373565-7.123478-18.69913-5.587479-30.72 3.539478-8.125217 6.299826-12.466087 13.445566-17.630609 10.195478-3.205565 19.055304-3.294609 29.139478 0.356174z" fill="#242424" p-id="6879"></path><path d="M509.19513 530.18713l10.707479-0.111304c9.015652 0.645565 9.015652 0.645565 14.580869 6.233044-0.957217 14.981565-0.957217 14.981565-7.145739 20.925217-4.986435 4.274087-4.986435 4.274087-4.36313 12.911304l0.356174 8.036174c-2.80487 2.80487-2.80487 2.80487-12.577392 3.138783-9.772522-0.333913-9.772522-0.333913-12.55513-3.116522-0.400696-7.479652-0.133565-14.892522 0-22.349913l-11.174957-5.587478c-0.111304-5.587478-0.111304-11.174957 0-16.762435 5.38713-5.38713 15.003826-3.272348 22.171826-3.31687z" fill="#242424" p-id="6880"></path></svg>