<svg t="1753774413831" class="icon" viewBox="0 0 1024 1024" version="1.1" xmlns="http://www.w3.org/2000/svg" p-id="7893" width="200" height="200"><path d="M1024.16706 243.008l-310.528 179.2v-94.08c-110.08-4.8-170.88-5.76-265.408 61.248-102.464 72.768-122.624 87.04-162.624 110.336 36.288 21.312 59.328 37.76 156.672 106.752 94.464 67.072 155.2 66.048 265.408 61.248v-94.08l310.464 179.2L707.68706 932.16v-83.008c-115.392 4.8-234.24 0.128-369.6-95.872-123.712-87.808-120.576-85.504-176.32-117.12-19.84-11.264-55.04-23.872-92.992-33.984a657.856 657.856 0 0 0-48.512-11.136c-15.36-2.816-21.376-3.072-20.096-3.072V408c1.92 0 3.904 0 6.016 0.128v-0.256c-1.28 0 4.672-0.256 20.032-3.072 13.568-2.56 30.464-6.272 48.512-11.072 38.016-10.112 73.152-22.784 93.056-34.048 55.68-31.552 52.544-29.248 176.32-117.12 135.296-96 254.208-100.672 369.536-95.808V63.744l310.528 179.2z" p-id="7894" fill="#dbdbdb"></path></svg>