<?xml version="1.0" standalone="no"?><!DOCTYPE svg PUBLIC "-//W3C//DTD SVG 1.1//EN" "http://www.w3.org/Graphics/SVG/1.1/DTD/svg11.dtd"><svg t="1765245670425" class="icon" viewBox="0 0 2141 1024" version="1.1" xmlns="http://www.w3.org/2000/svg" p-id="5689" xmlns:xlink="http://www.w3.org/1999/xlink" width="2141" height="1024"><path d="M2047.807265 0h-930.909091c-51.460192 0-93.090909 41.630717-93.090909 93.090909v279.272727c0 51.460192-41.630717 93.090909-93.090909 93.090909H93.090909C41.630717 465.454545 0 507.085263 0 558.545455V930.909091c0 51.460192 41.630717 93.090909 93.090909 93.090909h930.909091c51.460192 0 93.090909-41.630717 93.090909-93.090909V651.636364c0-51.460192 41.630717-93.090909 93.090909-93.090909h837.818182c51.460192 0 93.090909-41.630717 93.090909-93.09091V93.090909c0-51.460192-41.630717-93.090909-93.090909-93.090909z" fill="#6E29F5" p-id="5690"></path></svg>